# xmcd CD database file
#
# Track frame offsets:
#	150
#	17100
#	42818
#	67234
#	95164
#	115412
#	135587
#	164237
#	188490
#	204690
#	232440
#
# Disc length: 3354 seconds
#
# Revision: 0
# Processed by: cddbd v1.5.2PL0 Copyright (c) Steve Scherf et al.
# Submitted via: CDex 1.50Beta7
#
DISCID=ab0d180b
DTITLE=Vincent Noack con amigos - Watergames
DYEAR=2008
DGENRE=Jazz
TTITLE0=Elbperlen
TTITLE1=Snail mood
TTITLE2=Silencio del mar
TTITLE3=Watergames
TTITLE4=Zeze
TTITLE5=Três Lugares
TTITLE6=Brucellas Waterdance
TTITLE7=Ocean drops
TTITLE8=Todo Luz
TTITLE9=Dancing Waves
TTITLE10=Seven Waves
EXTD=YEAR: 2008
EXTT0=
EXTT1=
EXTT2=
EXTT3=
EXTT4=
EXTT5=
EXTT6=
EXTT7=
EXTT8=
EXTT9=
EXTT10=
PLAYORDER=
